<?xml version="1.0" ?><svg style="enable-background:new 0 0 24 24;" version="1.1" viewBox="0 0 24 24" xml:space="preserve" xmlns="http://www.w3.org/2000/svg" xmlns:xlink="http://www.w3.org/1999/xlink"><style type="text/css">
	.st0{display:none;}
	.st1{display:inline;}
	.st2{opacity:0.2;fill:none;stroke:#000000;stroke-width:5.000000e-02;stroke-miterlimit:10;}
</style><g class="st0" id="grid_system"/><g id="_icons"><path d="M3,16.6l1.2,1.8c0.6,1,1.8,1.4,2.9,1L8.2,19l0.3,1.1c0.3,1.1,1.3,1.9,2.4,1.9h2.2c1.1,0,2.1-0.8,2.4-1.9l0.3-1.1l1,0.4   c1.1,0.4,2.3,0,2.9-1l1.2-1.8c0.6-1,0.5-2.2-0.2-3.1L19.3,12l1.4-1.5c0.8-0.8,0.9-2.1,0.3-3.1l-1.2-1.8c-0.6-1-1.8-1.4-2.9-1   L15.8,5l-0.3-1.1C15.2,2.8,14.2,2,13.1,2h-2.2C9.8,2,8.8,2.8,8.5,3.9L8.2,4.9l-1-0.4c-1.1-0.4-2.3,0-2.9,1L3.1,7.3   c-0.6,1-0.5,2.2,0.2,3.1L4.7,12l-1.4,1.5C2.5,14.3,2.4,15.6,3,16.6z M4.8,14.9l2.1-2.2c0.4-0.4,0.4-1,0-1.4l-2-2.2   c-0.2-0.2-0.2-0.4,0-0.6l1.2-1.8c0.1-0.2,0.4-0.3,0.6-0.2l2.1,0.7c0.3,0.1,0.6,0.1,0.8-0.1C9.6,7,9.8,6.8,9.9,6.5l0.5-2.1   C10.5,4.2,10.7,4,10.9,4h2.2c0.2,0,0.4,0.2,0.5,0.4l0.5,2.2c0.1,0.3,0.2,0.5,0.5,0.6c0.2,0.1,0.5,0.2,0.8,0.1l2.1-0.7   c0.2-0.1,0.5,0,0.6,0.2l1.2,1.8c0.1,0.2,0.1,0.4-0.1,0.6l-2.1,2.2c-0.4,0.4-0.4,1,0,1.4l2,2.2c0.2,0.2,0.2,0.4,0,0.6l-1.2,1.8   c-0.1,0.2-0.4,0.3-0.6,0.2l-2.1-0.7c-0.3-0.1-0.6-0.1-0.8,0.1c-0.3,0.1-0.4,0.4-0.5,0.6l-0.5,2.1c-0.1,0.2-0.3,0.4-0.5,0.4h-2.2   c-0.2,0-0.4-0.2-0.5-0.4l-0.5-2.2c-0.1-0.3-0.2-0.5-0.5-0.6c-0.1-0.1-0.3-0.1-0.5-0.1c-0.1,0-0.2,0-0.3,0.1l-2.1,0.7   c-0.2,0.1-0.5,0-0.6-0.2l-1.2-1.8C4.6,15.3,4.6,15,4.8,14.9z"/><path d="M12,16c2.2,0,4-1.8,4-4s-1.8-4-4-4s-4,1.8-4,4S9.8,16,12,16z M12,10c1.1,0,2,0.9,2,2s-0.9,2-2,2s-2-0.9-2-2S10.9,10,12,10z   "/></g></svg>